<mxfile host="app.diagrams.net" modified="2022-04-20T03:51:33.260Z" agent="5.0 (Macintosh; Intel Mac OS X 10_15_7) AppleWebKit/537.36 (KHTML, like Gecko) Chrome/98.0.4758.102 Safari/537.36" etag="RxZjKkHNxNuo4Mtb31i6" version="17.4.5" type="github">
  <diagram id="HYRDFPaLTeHTxaK-pwKK" name="Page-1">
    <mxGraphModel dx="1400" dy="638" grid="1" gridSize="10" guides="1" tooltips="1" connect="1" arrows="1" fold="1" page="1" pageScale="1" pageWidth="827" pageHeight="1169" math="0" shadow="0">
      <root>
        <mxCell id="0" />
        <mxCell id="1" parent="0" />
        <mxCell id="wnz7HZowsqaoWhjd-5v0-4" value="" style="edgeStyle=orthogonalEdgeStyle;rounded=0;orthogonalLoop=1;jettySize=auto;html=1;" edge="1" parent="1" source="wnz7HZowsqaoWhjd-5v0-1" target="wnz7HZowsqaoWhjd-5v0-3">
          <mxGeometry relative="1" as="geometry" />
        </mxCell>
        <mxCell id="wnz7HZowsqaoWhjd-5v0-27" value="" style="edgeStyle=orthogonalEdgeStyle;rounded=0;orthogonalLoop=1;jettySize=auto;html=1;" edge="1" parent="1" source="wnz7HZowsqaoWhjd-5v0-1">
          <mxGeometry relative="1" as="geometry">
            <mxPoint x="600" y="260" as="targetPoint" />
          </mxGeometry>
        </mxCell>
        <mxCell id="wnz7HZowsqaoWhjd-5v0-1" value="w_t" style="rounded=0;whiteSpace=wrap;html=1;" vertex="1" parent="1">
          <mxGeometry x="160" y="240" width="40" height="40" as="geometry" />
        </mxCell>
        <mxCell id="wnz7HZowsqaoWhjd-5v0-22" style="edgeStyle=orthogonalEdgeStyle;rounded=0;orthogonalLoop=1;jettySize=auto;html=1;entryX=0;entryY=0.875;entryDx=0;entryDy=0;entryPerimeter=0;" edge="1" parent="1" source="wnz7HZowsqaoWhjd-5v0-2" target="wnz7HZowsqaoWhjd-5v0-19">
          <mxGeometry relative="1" as="geometry" />
        </mxCell>
        <mxCell id="wnz7HZowsqaoWhjd-5v0-2" value="m_t-1" style="rounded=0;whiteSpace=wrap;html=1;" vertex="1" parent="1">
          <mxGeometry x="160" y="440" width="40" height="40" as="geometry" />
        </mxCell>
        <mxCell id="wnz7HZowsqaoWhjd-5v0-12" value="" style="edgeStyle=orthogonalEdgeStyle;rounded=0;orthogonalLoop=1;jettySize=auto;html=1;" edge="1" parent="1" source="wnz7HZowsqaoWhjd-5v0-3" target="wnz7HZowsqaoWhjd-5v0-11">
          <mxGeometry relative="1" as="geometry" />
        </mxCell>
        <mxCell id="wnz7HZowsqaoWhjd-5v0-3" value="Network" style="whiteSpace=wrap;html=1;rounded=0;" vertex="1" parent="1">
          <mxGeometry x="120" y="310" width="120" height="60" as="geometry" />
        </mxCell>
        <mxCell id="wnz7HZowsqaoWhjd-5v0-14" value="" style="edgeStyle=orthogonalEdgeStyle;rounded=0;orthogonalLoop=1;jettySize=auto;html=1;" edge="1" parent="1" source="wnz7HZowsqaoWhjd-5v0-11">
          <mxGeometry relative="1" as="geometry">
            <mxPoint x="360" y="340" as="targetPoint" />
          </mxGeometry>
        </mxCell>
        <mxCell id="wnz7HZowsqaoWhjd-5v0-11" value="loss" style="rounded=0;whiteSpace=wrap;html=1;" vertex="1" parent="1">
          <mxGeometry x="280" y="320" width="40" height="40" as="geometry" />
        </mxCell>
        <mxCell id="wnz7HZowsqaoWhjd-5v0-16" value="" style="edgeStyle=orthogonalEdgeStyle;rounded=0;orthogonalLoop=1;jettySize=auto;html=1;" edge="1" parent="1">
          <mxGeometry relative="1" as="geometry">
            <mxPoint x="400" y="340" as="sourcePoint" />
            <mxPoint x="440" y="340" as="targetPoint" />
          </mxGeometry>
        </mxCell>
        <mxCell id="wnz7HZowsqaoWhjd-5v0-17" value="g_t" style="ellipse;whiteSpace=wrap;html=1;aspect=fixed;" vertex="1" parent="1">
          <mxGeometry x="360" y="320" width="40" height="40" as="geometry" />
        </mxCell>
        <mxCell id="wnz7HZowsqaoWhjd-5v0-21" style="edgeStyle=orthogonalEdgeStyle;rounded=0;orthogonalLoop=1;jettySize=auto;html=1;exitX=1;exitY=0.5;exitDx=0;exitDy=0;" edge="1" parent="1" source="wnz7HZowsqaoWhjd-5v0-18" target="wnz7HZowsqaoWhjd-5v0-3">
          <mxGeometry relative="1" as="geometry" />
        </mxCell>
        <mxCell id="wnz7HZowsqaoWhjd-5v0-18" value="x" style="ellipse;whiteSpace=wrap;html=1;aspect=fixed;" vertex="1" parent="1">
          <mxGeometry x="40" y="320" width="40" height="40" as="geometry" />
        </mxCell>
        <mxCell id="wnz7HZowsqaoWhjd-5v0-24" style="edgeStyle=orthogonalEdgeStyle;rounded=0;orthogonalLoop=1;jettySize=auto;html=1;entryX=0;entryY=0.5;entryDx=0;entryDy=0;" edge="1" parent="1" source="wnz7HZowsqaoWhjd-5v0-19" target="wnz7HZowsqaoWhjd-5v0-23">
          <mxGeometry relative="1" as="geometry">
            <Array as="points">
              <mxPoint x="490" y="460" />
              <mxPoint x="490" y="460" />
            </Array>
          </mxGeometry>
        </mxCell>
        <mxCell id="wnz7HZowsqaoWhjd-5v0-19" value="动量&lt;br&gt;更新&lt;br&gt;公式" style="whiteSpace=wrap;html=1;rounded=0;" vertex="1" parent="1">
          <mxGeometry x="440" y="320" width="40" height="160" as="geometry" />
        </mxCell>
        <mxCell id="wnz7HZowsqaoWhjd-5v0-28" style="edgeStyle=orthogonalEdgeStyle;rounded=0;orthogonalLoop=1;jettySize=auto;html=1;exitX=0.5;exitY=0;exitDx=0;exitDy=0;" edge="1" parent="1" source="wnz7HZowsqaoWhjd-5v0-23">
          <mxGeometry relative="1" as="geometry">
            <mxPoint x="540" y="260" as="targetPoint" />
          </mxGeometry>
        </mxCell>
        <mxCell id="wnz7HZowsqaoWhjd-5v0-32" style="edgeStyle=orthogonalEdgeStyle;rounded=0;orthogonalLoop=1;jettySize=auto;html=1;entryX=0;entryY=0.5;entryDx=0;entryDy=0;" edge="1" parent="1" source="wnz7HZowsqaoWhjd-5v0-23" target="wnz7HZowsqaoWhjd-5v0-31">
          <mxGeometry relative="1" as="geometry" />
        </mxCell>
        <mxCell id="wnz7HZowsqaoWhjd-5v0-23" value="m_t" style="ellipse;whiteSpace=wrap;html=1;aspect=fixed;" vertex="1" parent="1">
          <mxGeometry x="520" y="440" width="40" height="40" as="geometry" />
        </mxCell>
        <mxCell id="wnz7HZowsqaoWhjd-5v0-33" style="edgeStyle=orthogonalEdgeStyle;rounded=0;orthogonalLoop=1;jettySize=auto;html=1;exitX=1;exitY=0.5;exitDx=0;exitDy=0;entryX=0;entryY=0.5;entryDx=0;entryDy=0;" edge="1" parent="1" source="wnz7HZowsqaoWhjd-5v0-29" target="wnz7HZowsqaoWhjd-5v0-30">
          <mxGeometry relative="1" as="geometry" />
        </mxCell>
        <mxCell id="wnz7HZowsqaoWhjd-5v0-29" value="w_t+1" style="ellipse;whiteSpace=wrap;html=1;aspect=fixed;" vertex="1" parent="1">
          <mxGeometry x="600" y="240" width="40" height="40" as="geometry" />
        </mxCell>
        <mxCell id="wnz7HZowsqaoWhjd-5v0-30" value="w_t+1" style="rounded=0;whiteSpace=wrap;html=1;" vertex="1" parent="1">
          <mxGeometry x="720" y="240" width="40" height="40" as="geometry" />
        </mxCell>
        <mxCell id="wnz7HZowsqaoWhjd-5v0-31" value="m_t" style="rounded=0;whiteSpace=wrap;html=1;" vertex="1" parent="1">
          <mxGeometry x="720" y="440" width="40" height="40" as="geometry" />
        </mxCell>
      </root>
    </mxGraphModel>
  </diagram>
</mxfile>
